<?xml version="1.0" encoding="UTF-8"?>
<!DOCTYPE svg PUBLIC "-//W3C//DTD SVG 1.1//EN" "http://www.w3.org/Graphics/SVG/1.1/DTD/svg11.dtd">
<svg xmlns="http://www.w3.org/2000/svg" version="1.1" width="180px" height="180px" style="shape-rendering:geometricPrecision; text-rendering:geometricPrecision; image-rendering:optimizeQuality; fill-rule:evenodd; clip-rule:evenodd" xmlns:xlink="http://www.w3.org/1999/xlink">
<g><path style="opacity:1" fill="#fdfdfd" d="M -0.5,-0.5 C 59.5,-0.5 119.5,-0.5 179.5,-0.5C 179.5,59.5 179.5,119.5 179.5,179.5C 119.5,179.5 59.5,179.5 -0.5,179.5C -0.5,119.5 -0.5,59.5 -0.5,-0.5 Z"/></g>
<g><path style="opacity:1" fill="#bcbcbc" d="M 38.5,63.5 C 38.6646,60.4816 38.498,57.4816 38,54.5C 37.8195,57.6946 37.3195,60.6946 36.5,63.5C 36.5,59.5 36.5,55.5 36.5,51.5C 37.5,51.5 38.5,51.5 39.5,51.5C 39.8168,55.7016 39.4834,59.7016 38.5,63.5 Z"/></g>
<g><path style="opacity:1" fill="#2b2b2b" d="M 38.5,63.5 C 36.9516,64.734 36.2849,64.734 36.5,63.5C 37.3195,60.6946 37.8195,57.6946 38,54.5C 38.498,57.4816 38.6646,60.4816 38.5,63.5 Z"/></g>
<g><path style="opacity:1" fill="#505050" d="M 33.5,50.5 C 35.4136,53.6843 36.0803,57.351 35.5,61.5C 28.5607,62.4221 26.5607,59.9221 29.5,54C 30.7839,53.3162 31.9505,53.4829 33,54.5C 33.49,53.2068 33.6567,51.8734 33.5,50.5 Z"/></g>
<g><path style="opacity:1" fill="#e9e9e9" d="M 29.5,55.5 C 30.8333,55.5 32.1667,55.5 33.5,55.5C 33.8841,57.6648 33.2174,59.3315 31.5,60.5C 29.7826,59.3315 29.1159,57.6648 29.5,55.5 Z"/></g>
<g><path style="opacity:1" fill="#494949" d="M 49.5,53.5 C 50.5726,54.6579 51.7393,54.6579 53,53.5C 56.4649,55.22 57.2982,57.8867 55.5,61.5C 54.5344,59.604 54.2011,57.604 54.5,55.5C 53.1779,55.33 52.0113,55.6634 51,56.5C 50.6667,58.1667 50.3333,59.8333 50,61.5C 49.5026,58.854 49.3359,56.1873 49.5,53.5 Z"/></g>
<g><path style="opacity:1" fill="#4c4c4c" d="M 42.5,53.5 C 44.1439,53.2865 45.6439,53.6198 47,54.5C 47.4966,56.8098 47.6633,59.1432 47.5,61.5C 45.4727,61.6621 43.4727,61.4955 41.5,61C 40.1787,59.4555 40.5121,58.2888 42.5,57.5C 43.5063,57.9377 43.5063,58.6043 42.5,59.5C 43.0016,60.521 43.6683,60.6877 44.5,60C 45.3802,58.6439 45.7135,57.1439 45.5,55.5C 44.1266,55.6567 42.7932,55.49 41.5,55C 42.056,54.6174 42.3893,54.1174 42.5,53.5 Z"/></g>
<g><path style="opacity:1" fill="#434343" d="M 67.5,53.5 C 69.1439,53.2865 70.6439,53.6198 72,54.5C 72.7581,56.7695 72.5914,58.9361 71.5,61C 69.8876,61.7203 68.3876,61.5536 67,60.5C 66.2967,58.0709 66.4634,55.7375 67.5,53.5 Z"/></g>
<g><path style="opacity:1" fill="#ececec" d="M 67.5,55.5 C 68.8333,55.5 70.1667,55.5 71.5,55.5C 71.8841,57.6648 71.2174,59.3315 69.5,60.5C 67.7826,59.3315 67.1159,57.6648 67.5,55.5 Z"/></g>
<g><path style="opacity:1" fill="#464646" d="M 59.5,53.5 C 61.1992,53.3398 62.8659,53.5065 64.5,54C 63.6198,55.3561 63.2865,56.8561 63.5,58.5C 62.325,58.281 61.325,58.6143 60.5,59.5C 61.6888,60.4287 63.0222,60.762 64.5,60.5C 64.67,61.8221 64.3366,62.9887 63.5,64C 61.5273,64.4955 59.5273,64.6621 57.5,64.5C 57.9843,60.768 58.651,57.1013 59.5,53.5 Z"/></g>
<g><path style="opacity:1" fill="#f8f8f8" d="M 59.5,61.5 C 60.675,61.281 61.675,61.6143 62.5,62.5C 60.9483,63.7979 59.9483,63.4646 59.5,61.5 Z"/></g>
<g><path style="opacity:1" fill="#e6e6e6" d="M 60.5,54.5 C 62.6246,55.3676 62.7913,56.3676 61,57.5C 59.3167,56.8235 59.1501,55.8235 60.5,54.5 Z"/></g>
<g><path style="opacity:1" fill="#ac7777" d="M 28.5,70.5 C 28.5,70.1667 28.5,69.8333 28.5,69.5C 35.5888,69.1156 42.5888,69.6156 49.5,71C 51.1412,72.129 52.1412,73.629 52.5,75.5C 50.4442,72.9506 47.7776,71.4506 44.5,71C 39.1771,70.5006 33.8437,70.334 28.5,70.5 Z"/></g>
<g><path style="opacity:1" fill="#893c3c" d="M 64.5,69.5 C 64.5,69.8333 64.5,70.1667 64.5,70.5C 64.5,82.1667 64.5,93.8333 64.5,105.5C 60.8183,105.665 57.1516,105.499 53.5,105C 52.7476,104.329 52.4142,103.496 52.5,102.5C 55.8462,104.324 59.5128,104.99 63.5,104.5C 63.1717,92.6547 63.5051,80.988 64.5,69.5 Z"/></g>
<g><path style="opacity:1" fill="#aa7272" d="M 64.5,70.5 C 64.5,70.1667 64.5,69.8333 64.5,69.5C 71.8333,69.5 79.1667,69.5 86.5,69.5C 86.5,71.1667 86.5,72.8333 86.5,74.5C 81.1667,74.5 75.8333,74.5 70.5,74.5C 70.5,78.1667 70.5,81.8333 70.5,85.5C 78.1955,85.8308 85.8622,85.4975 93.5,84.5C 92.4252,81.562 92.2585,78.562 93,75.5C 94.0757,72.921 95.909,71.2543 98.5,70.5C 93.25,74.8322 92.25,79.9989 95.5,86C 86.5062,86.4998 77.5062,86.6664 68.5,86.5C 68.5,82.1667 68.5,77.8333 68.5,73.5C 73.8333,73.5 79.1667,73.5 84.5,73.5C 84.5,72.5 84.5,71.5 84.5,70.5C 77.8333,70.5 71.1667,70.5 64.5,70.5 Z"/></g>
<g><path style="opacity:1" fill="#9c5d5d" d="M 112.5,74.5 C 112.5,74.8333 112.5,75.1667 112.5,75.5C 108.484,74.2575 104.484,74.2575 100.5,75.5C 100.611,74.8826 100.944,74.3826 101.5,74C 105.221,73.3219 108.888,73.4886 112.5,74.5 Z"/></g>
<g><path style="opacity:1" fill="#be9393" d="M 52.5,75.5 C 53.1174,75.6107 53.6174,75.944 54,76.5C 54.9651,80.7824 54.2984,84.7824 52,88.5C 51.3292,89.2524 50.4959,89.5858 49.5,89.5C 52.1974,85.307 53.1974,80.6403 52.5,75.5 Z"/></g>
<g><path style="opacity:1" fill="#b98a89" d="M 100.5,75.5 C 98.4968,79.6909 99.4968,82.8576 103.5,85C 99.8435,85.1839 97.8435,83.3506 97.5,79.5C 97.5613,77.3472 98.5613,76.0138 100.5,75.5 Z"/></g>
<g><path style="opacity:1" fill="#a46b6b" d="M 44.5,75.5 C 46.4109,75.5743 47.5776,76.5743 48,78.5C 48.8513,81.053 48.518,83.3863 47,85.5C 48.0637,81.7543 47.2304,78.421 44.5,75.5 Z"/></g>
<g><path style="opacity:1" fill="#bf9797" d="M 44.5,75.5 C 41.1667,75.5 37.8333,75.5 34.5,75.5C 34.5,79.5 34.5,83.5 34.5,87.5C 37.8499,87.335 41.1832,87.5017 44.5,88C 40.6372,89.3537 36.6372,89.8537 32.5,89.5C 32.5,84.1667 32.5,78.8333 32.5,73.5C 36.8171,73.0834 40.8171,73.7501 44.5,75.5 Z"/></g>
<g><path style="opacity:1" fill="#ac7877" d="M 114.5,91.5 C 112.22,90.3599 109.886,89.1932 107.5,88C 110.614,87.5572 112.948,88.7238 114.5,91.5 Z"/></g>
<g><path style="opacity:1" fill="#853737" d="M 28.5,69.5 C 28.5,69.8333 28.5,70.1667 28.5,70.5C 28.5,83.5 28.5,96.5 28.5,109.5C 29.8333,109.5 31.1667,109.5 32.5,109.5C 33.1667,109.5 33.5,109.833 33.5,110.5C 31.5,110.5 29.5,110.5 27.5,110.5C 27.171,96.6565 27.5043,82.9898 28.5,69.5 Z"/></g>
<g><path style="opacity:1" fill="#e0d8d8" d="M 112.5,74.5 C 113.5,74.5 114.5,74.5 115.5,74.5C 121.358,74.1778 127.025,74.5111 132.5,75.5C 131.171,80.7918 130.504,86.4585 130.5,92.5C 130.504,98.5415 131.171,104.208 132.5,109.5C 132.5,109.833 132.5,110.167 132.5,110.5C 130.955,111.23 130.122,112.563 130,114.5C 129.5,101.504 129.333,88.5043 129.5,75.5C 123.61,75.6749 117.943,75.6749 112.5,75.5C 112.5,75.1667 112.5,74.8333 112.5,74.5 Z"/></g>
<g><path style="opacity:1" fill="#b17d7d" d="M 132.5,110.5 C 132.5,110.167 132.5,109.833 132.5,109.5C 132.5,98.1667 132.5,86.8333 132.5,75.5C 127.025,74.5111 121.358,74.1778 115.5,74.5C 121.645,73.5098 127.978,73.1765 134.5,73.5C 134.5,85.5 134.5,97.5 134.5,109.5C 135.822,109.67 136.989,109.337 138,108.5C 138.5,96.8381 138.667,85.1714 138.5,73.5C 142.5,73.5 146.5,73.5 150.5,73.5C 150.5,72.5 150.5,71.5 150.5,70.5C 133.118,70.3188 115.785,70.3188 98.5,70.5C 100.462,68.9827 102.795,68.3161 105.5,68.5C 120.817,69.4183 136.15,69.7516 151.5,69.5C 151.5,71.1667 151.5,72.8333 151.5,74.5C 147.5,74.5 143.5,74.5 139.5,74.5C 139.5,86.5 139.5,98.5 139.5,110.5C 137.167,110.5 134.833,110.5 132.5,110.5 Z"/></g>
<g><path style="opacity:1" fill="#9d5d5c" d="M 49.5,89.5 C 48.9423,90.7899 47.9423,91.6232 46.5,92C 47.4545,95.3124 47.1212,95.3124 45.5,92C 46.3557,90.4053 47.6891,89.572 49.5,89.5 Z"/></g>
<g><path style="opacity:1" fill="#ad7979" d="M 41.5,94.5 C 39.283,93.6314 36.9496,93.298 34.5,93.5C 34.8222,99.358 34.4889,105.025 33.5,110.5C 33.5,109.833 33.1667,109.5 32.5,109.5C 33.4524,103.925 33.7857,98.2586 33.5,92.5C 36.6981,91.9644 39.3647,92.631 41.5,94.5 Z"/></g>
<g><path style="opacity:1" fill="#a36766" d="M 41.5,94.5 C 42.9063,94.9731 43.573,95.9731 43.5,97.5C 42.0937,97.0269 41.427,96.0269 41.5,94.5 Z"/></g>
<g><path style="opacity:1" fill="#af7a7a" d="M 43.5,97.5 C 45.2503,98.6594 46.2503,100.326 46.5,102.5C 44.7497,101.341 43.7497,99.674 43.5,97.5 Z"/></g>
<g><path style="opacity:1" fill="#c29a99" d="M 103.5,91.5 C 109.454,92.2813 112.288,95.6146 112,101.5C 111.208,103.644 109.708,104.977 107.5,105.5C 107.5,105.167 107.5,104.833 107.5,104.5C 110.33,102.638 111.163,99.9711 110,96.5C 107.674,94.9343 105.508,93.2676 103.5,91.5 Z"/></g>
<g><path style="opacity:1" fill="#a56b6b" d="M 52.5,102.5 C 50.018,101.196 48.8513,99.1957 49,96.5C 50.4424,98.3911 51.6091,100.391 52.5,102.5 Z"/></g>
<g><path style="opacity:1" fill="#f9f7f7" d="M 132.5,75.5 C 132.5,86.8333 132.5,98.1667 132.5,109.5C 131.171,104.208 130.504,98.5415 130.5,92.5C 130.504,86.4585 131.171,80.7918 132.5,75.5 Z"/></g>
<g><path style="opacity:1" fill="#a26564" d="M 103.5,91.5 C 92.5,91.5 81.5,91.5 70.5,91.5C 70.5,95.8333 70.5,100.167 70.5,104.5C 75.5,104.5 80.5,104.5 85.5,104.5C 85.5,105.167 85.1667,105.5 84.5,105.5C 79.1667,105.5 73.8333,105.5 68.5,105.5C 68.5,100.5 68.5,95.5 68.5,90.5C 80.3453,90.1717 92.012,90.5051 103.5,91.5 Z"/></g>
<g><path style="opacity:1" fill="#d3b9b8" d="M 46.5,102.5 C 48.3264,104.147 49.6597,106.147 50.5,108.5C 50.5,108.833 50.5,109.167 50.5,109.5C 49.8501,109.804 49.1835,110.137 48.5,110.5C 47.6185,107.87 46.9519,105.203 46.5,102.5 Z"/></g>
<g><path style="opacity:1" fill="#ab7474" d="M 114.5,91.5 C 115.79,92.0577 116.623,93.0577 117,94.5C 118.942,100.89 117.109,105.723 111.5,109C 105.098,111.105 98.7651,110.938 92.5,108.5C 91.5344,106.604 91.2011,104.604 91.5,102.5C 96.7139,103.968 102.047,104.635 107.5,104.5C 107.5,104.833 107.5,105.167 107.5,105.5C 102.794,105.915 98.2938,105.248 94,103.5C 92.8629,107.37 94.3629,109.203 98.5,109C 113.003,111.011 118.337,105.177 114.5,91.5 Z"/></g>
<g><path style="opacity:1" fill="#d5bbbb" d="M 85.5,104.5 C 86.8333,106.5 86.8333,108.5 85.5,110.5C 77.0161,109.507 68.3494,109.174 59.5,109.5C 67.6499,108.507 75.9832,108.174 84.5,108.5C 84.5,107.5 84.5,106.5 84.5,105.5C 85.1667,105.5 85.5,105.167 85.5,104.5 Z"/></g>
<g><path style="opacity:1" fill="#975352" d="M 50.5,108.5 C 51.8149,109.476 53.1482,110.476 54.5,111.5C 56.0754,110.544 57.742,109.877 59.5,109.5C 68.3494,109.174 77.0161,109.507 85.5,110.5C 76.4938,110.334 67.4938,110.5 58.5,111C 55.1932,113.336 52.5266,112.836 50.5,109.5C 50.5,109.167 50.5,108.833 50.5,108.5 Z"/></g>
<g><path style="opacity:1" fill="#4a4a4a" d="M 96.5,118.5 C 99.8499,118.335 103.183,118.502 106.5,119C 107.769,121.139 107.769,123.305 106.5,125.5C 105.04,117.721 103.373,117.721 101.5,125.5C 99.9774,117.679 98.4774,117.679 97,125.5C 96.5034,123.19 96.3367,120.857 96.5,118.5 Z"/></g>
<g><path style="opacity:1" fill="#626262" d="M 147.5,120.5 C 148.002,118.915 149.002,118.415 150.5,119C 149.756,120.039 148.756,120.539 147.5,120.5 Z"/></g>
<g><path style="opacity:1" fill="#5c5c5c" d="M 77.5,115.5 C 80.7973,115.329 81.1306,115.995 78.5,117.5C 79.0253,118.192 79.6919,118.692 80.5,119C 79.0361,120.864 78.0361,123.031 77.5,125.5C 75.6457,121.927 75.6457,118.593 77.5,115.5 Z"/></g>
<g><path style="opacity:1" fill="#404040" d="M 88.5,119.5 C 89.9187,118.549 91.5853,118.216 93.5,118.5C 93.5,120.833 93.5,123.167 93.5,125.5C 91.5,125.5 89.5,125.5 87.5,125.5C 87.5482,122.365 89.2148,120.698 92.5,120.5C 91.3112,119.571 89.9778,119.238 88.5,119.5 Z"/></g>
<g><path style="opacity:1" fill="#6a6a6a" d="M 137.5,118.5 C 139.199,118.34 140.866,118.506 142.5,119C 141.584,119.374 140.75,119.874 140,120.5C 139.798,122.256 139.298,123.922 138.5,125.5C 137.526,123.257 137.192,120.924 137.5,118.5 Z"/></g>
<g><path style="opacity:1" fill="#464646" d="M 81.5,118.5 C 83.1992,118.34 84.8659,118.506 86.5,119C 85.5838,119.374 84.7504,119.874 84,120.5C 83.7978,122.256 83.2978,123.922 82.5,125.5C 81.5258,123.257 81.1924,120.924 81.5,118.5 Z"/></g>
<g><path style="opacity:1" fill="#3a3a3a" d="M 114.5,119.5 C 115.404,120.209 115.737,121.209 115.5,122.5C 110.203,123.032 110.203,123.866 115.5,125C 110.333,126.5 108.5,124.667 110,119.5C 111.616,118.199 113.116,118.199 114.5,119.5 Z"/></g>
<g><path style="opacity:1" fill="#c6c6c6" d="M 114.5,119.5 C 114.052,121.465 113.052,121.798 111.5,120.5C 112.325,119.614 113.325,119.281 114.5,119.5 Z"/></g>
<g><path style="opacity:1" fill="#525252" d="M 117.5,118.5 C 118.966,119.347 119.8,120.68 120,122.5C 121.667,117.167 123.333,117.167 125,122.5C 125.219,121.062 125.719,119.729 126.5,118.5C 127.864,121.374 127.197,123.707 124.5,125.5C 123.813,123.726 122.98,122.059 122,120.5C 121.902,122.619 121.069,124.286 119.5,125.5C 118.056,123.392 117.39,121.059 117.5,118.5 Z"/></g>
<g><path style="opacity:1" fill="#494949" d="M 130.5,118.5 C 132.144,118.286 133.644,118.62 135,119.5C 135.495,121.473 135.662,123.473 135.5,125.5C 128.552,126.574 126.885,124.241 130.5,118.5 Z"/></g>
<g><path style="opacity:1" fill="#e8e8e8" d="M 131.5,119.5 C 134.084,120.048 135.084,121.715 134.5,124.5C 133.167,124.5 131.833,124.5 130.5,124.5C 130.366,122.708 130.699,121.042 131.5,119.5 Z"/></g>
<g><path style="opacity:1" fill="#484848" d="M 147.5,120.5 C 147.859,122.371 148.859,123.871 150.5,125C 148.953,125.333 147.62,124.833 146.5,123.5C 145.833,124.167 145.167,124.833 144.5,125.5C 143.167,122.167 143.167,118.833 144.5,115.5C 145.308,117.423 145.808,119.423 146,121.5C 146.383,120.944 146.883,120.611 147.5,120.5 Z"/></g>
<g><path style="opacity:1" fill="#f2f2f2" d="M 89.5,122.5 C 92.7973,122.329 93.1306,122.995 90.5,124.5C 89.7025,124.043 89.3691,123.376 89.5,122.5 Z"/></g>
</svg>
