<?xml version="1.0" standalone="no"?>
<!DOCTYPE svg PUBLIC "-//W3C//DTD SVG 20010904//EN"
 "http://www.w3.org/TR/2001/REC-SVG-20010904/DTD/svg10.dtd">
<svg version="1.0" xmlns="http://www.w3.org/2000/svg"
 width="1945.000000pt" height="1820.000000pt" viewBox="0 0 1945.000000 1820.000000"
 preserveAspectRatio="xMidYMid meet">

<g transform="translate(0.000000,1820.000000) scale(0.100000,-0.100000)"
fill="#000000" stroke="none">
<path d="M2330 18185 c-248 -56 -390 -195 -390 -380 0 -163 138 -401 291 -500
140 -91 204 -177 204 -275 0 -120 -95 -229 -385 -440 -355 -259 -413 -351
-290 -469 60 -58 90 -138 98 -263 9 -166 -35 -292 -143 -406 -108 -115 -235
-174 -447 -208 -122 -19 -191 -43 -275 -96 -242 -153 -295 -487 -91 -573 90
-37 247 5 394 106 66 45 391 136 411 115 32 -32 -303 -181 -551 -245 -294 -77
-543 -213 -749 -411 -249 -238 -386 -511 -404 -805 -11 -193 28 -359 138 -575
208 -411 368 -931 634 -2060 240 -1020 329 -1312 618 -2026 569 -1409 1316
-2697 2233 -3854 68 -85 164 -209 213 -275 150 -202 246 -311 480 -546 321
-321 506 -479 1141 -974 238 -186 405 -308 540 -394 727 -463 1362 -789 1910
-979 956 -332 1516 -467 2431 -586 465 -61 842 -96 1839 -172 602 -46 607 -46
948 -40 796 15 1514 75 2184 183 181 29 264 37 438 43 292 10 379 28 831 181
444 149 526 169 724 176 176 6 286 -12 428 -70 84 -34 86 -34 103 -16 30 33
171 118 254 154 149 64 272 93 605 145 345 54 463 84 612 157 105 51 100 43
129 208 40 224 -19 367 -174 425 -103 39 -228 44 -552 25 -540 -33 -747 -1
-906 139 l-48 43 -61 -61 c-76 -78 -159 -132 -249 -165 -61 -22 -87 -26 -186
-25 -123 0 -162 8 -417 85 -260 78 -441 97 -595 62 -104 -23 -340 -22 -426 2
-99 28 -123 74 -81 158 26 51 55 88 183 237 183 211 255 321 290 439 28 94 23
114 -31 149 -108 69 -246 89 -377 56 -88 -22 -227 -94 -331 -171 -84 -62 -275
-248 -640 -621 -83 -85 -157 -158 -165 -162 -17 -9 -284 41 -565 104 -822 187
-1648 478 -2210 778 -621 332 -1110 647 -1533 986 -418 335 -622 550 -1363
1437 -484 579 -796 1030 -1019 1470 -130 256 -175 372 -381 975 -246 720 -407
1545 -509 2605 -31 327 -56 655 -105 1380 -25 369 -55 785 -67 925 -38 441
-29 576 48 730 68 134 165 190 332 190 136 -1 224 -23 617 -155 409 -137 502
-158 671 -153 118 4 124 5 200 43 92 47 91 43 33 163 -155 318 -485 527 -1315
828 -115 41 -270 100 -344 129 -74 29 -160 56 -190 60 -171 22 -315 89 -595
276 -108 72 -233 150 -278 174 -103 55 -240 101 -348 118 l-84 13 -6 77 c-15
178 -130 293 -359 356 -41 12 -172 37 -290 56 -291 48 -410 72 -499 102 -142
48 -265 119 -332 194 l-25 29 24 73 c35 104 41 228 14 289 -25 57 -82 101
-155 119 -62 16 -238 18 -537 5 -295 -12 -401 8 -483 92 -45 47 -66 97 -73
175 -6 69 -1 96 53 247 34 96 37 114 37 215 1 92 -3 119 -22 168 -50 123 -157
215 -305 263 -104 33 -277 42 -377 19z m302 -102 c69 -31 119 -83 166 -173 45
-88 43 -139 -7 -164 -48 -25 -107 -27 -286 -11 -191 17 -251 14 -290 -17 -43
-34 -29 -103 40 -199 46 -64 25 -62 -40 4 -80 80 -104 180 -69 298 40 138 139
243 267 285 58 19 146 10 219 -23z m169 -1262 c-14 -25 -46 -46 -84 -55 -46
-11 -30 23 27 62 52 35 77 32 57 -7z m755 -37 c82 -40 37 -80 -128 -115 -69
-14 -112 -18 -165 -13 -71 6 -73 7 -73 33 0 47 42 87 120 112 45 15 203 4 246
-17z m209 -603 c224 -69 353 -143 427 -245 45 -62 37 -69 -38 -34 -36 17 -83
31 -103 32 -33 1 -36 -1 -39 -30 -2 -16 8 -70 23 -118 14 -49 25 -101 25 -118
0 -43 -25 -83 -62 -99 -43 -18 -143 -18 -188 0 -101 41 -267 185 -347 301
-102 150 -147 314 -109 403 l13 33 134 -42 c74 -23 193 -61 264 -83z m-480
-330 c76 -57 146 -131 143 -150 -4 -21 -109 -21 -328 -2 -239 21 -389 4 -510
-59 -30 -16 -76 -32 -102 -35 -54 -8 -111 2 -105 18 13 42 457 196 752 260 64
14 98 7 150 -32z m1531 -246 c42 -27 28 -90 -39 -177 l-37 -48 29 -32 c49 -57
152 -200 172 -241 11 -21 18 -46 15 -54 -14 -34 -101 23 -238 156 -94 90 -109
101 -88 62 5 -10 14 -49 20 -86 29 -181 -59 -389 -173 -410 -103 -20 -229 76
-338 256 -52 88 -153 195 -191 204 -43 11 -74 -1 -88 -35 -19 -45 -8 -153 23
-228 l26 -64 -37 34 c-139 125 -314 178 -586 178 -271 -1 -554 -56 -983 -195
-149 -48 -172 -52 -204 -34 -20 10 -20 12 -3 30 37 42 237 103 804 249 195 50
391 101 435 114 44 13 105 27 135 30 80 10 248 54 555 146 544 163 716 195
791 145z m2159 -605 c213 -12 202 -7 246 -100 79 -164 -6 -404 -210 -593 -149
-137 -366 -244 -539 -263 -31 -4 -98 -22 -148 -40 -353 -127 -756 -211 -1460
-305 -259 -34 -334 -41 -464 -40 -323 3 -488 -48 -1009 -312 -173 -87 -358
-178 -413 -203 -177 -79 -401 -148 -550 -169 l-47 -6 25 56 c14 31 28 73 31
94 4 32 1 41 -18 55 -32 22 -58 21 -251 -14 -93 -16 -213 -32 -268 -36 l-100
-7 8 -41 c12 -67 5 -143 -15 -179 -23 -40 -94 -77 -148 -77 -138 0 -343 100
-480 235 -99 98 -130 155 -130 242 0 53 4 66 31 100 35 43 131 96 214 117 l55
14 -55 16 c-317 95 -519 -13 -602 -322 -26 -99 -35 -345 -19 -493 7 -57 14
-112 17 -121 4 -14 -1 -18 -20 -18 -19 0 -36 13 -66 53 -156 208 -237 438
-211 603 43 279 332 485 841 598 124 27 310 59 316 53 2 -1 -3 -25 -11 -52
-23 -75 -19 -171 9 -230 59 -126 202 -209 475 -276 l133 -33 67 23 c120 42
159 91 109 138 -13 12 -59 42 -103 69 -93 55 -135 91 -135 115 0 25 52 65 110
84 27 9 50 23 50 30 0 7 -57 43 -127 79 -136 71 -163 89 -181 123 -9 17 -8 26
9 47 27 34 112 59 328 97 361 61 684 143 1241 311 990 299 1227 360 1775 452
667 112 1206 152 1690 126z m1449 -606 c170 -58 263 -171 235 -286 -21 -91
-69 -88 -118 9 -24 48 -37 62 -76 81 -128 62 -255 161 -255 198 0 39 97 39
214 -2z m-1860 -645 c83 -23 153 -120 191 -264 54 -208 43 -629 -25 -966 -18
-87 -58 -236 -76 -283 -6 -16 -4 -17 14 -7 72 39 131 -27 168 -188 22 -93 30
-499 14 -700 -11 -147 -40 -370 -56 -436 l-7 -30 26 24 c135 124 173 -355 54
-682 -21 -58 -22 -67 -9 -61 31 14 103 16 132 4 30 -13 60 -63 60 -102 0 -36
-24 -118 -55 -186 -32 -73 -50 -92 -59 -64 -4 10 -20 32 -36 47 -25 24 -34 27
-48 19 -51 -32 -92 -152 -117 -342 -32 -241 -7 -294 41 -87 15 65 171 267 221
286 56 21 73 -17 112 -237 17 -93 37 -187 44 -209 8 -22 22 -87 32 -144 24
-150 91 -405 185 -711 90 -293 153 -528 171 -635 9 -59 17 -76 48 -110 61 -65
81 -96 81 -126 0 -30 -17 -46 -115 -108 -35 -21 -72 -55 -88 -79 -28 -44 -57
-136 -57 -184 0 -26 2 -28 21 -17 31 16 107 6 164 -22 56 -27 169 -129 219
-198 74 -100 146 -283 146 -370 0 -66 9 -24 20 89 14 147 25 190 50 190 12 0
47 -38 101 -112 94 -128 174 -213 244 -257 43 -27 64 -57 235 -340 316 -521
430 -677 700 -955 179 -184 270 -297 270 -334 0 -13 -11 -26 -27 -34 -16 -7
-29 -22 -31 -33 -6 -49 158 -290 301 -441 293 -310 770 -588 1324 -772 104
-35 189 -60 418 -122 33 -9 51 -25 100 -87 33 -42 107 -124 165 -182 225 -228
444 -364 688 -428 165 -42 410 -41 569 3 19 5 15 -1 -17 -34 -51 -51 -53 -87
-7 -133 68 -69 205 -116 669 -233 291 -73 410 -113 428 -145 14 -26 -6 -47
-67 -71 -32 -12 -90 -35 -129 -51 -181 -73 -305 -63 -669 55 -177 56 -307 86
-380 86 -51 0 -110 20 -280 94 -572 251 -769 324 -985 367 -89 18 -147 23
-255 22 -211 -1 -274 -21 -516 -164 -140 -83 -197 -106 -206 -83 -7 18 21 58
142 204 53 63 91 116 85 118 -23 8 -149 -87 -247 -185 -128 -128 -195 -174
-263 -181 -91 -8 -138 30 -241 194 -99 159 -188 234 -280 234 -41 0 -129 -24
-180 -51 -36 -18 -37 -18 -55 3 -11 11 -70 46 -132 76 -117 58 -162 92 -162
123 0 25 47 77 98 110 l43 27 -68 7 c-84 9 -113 20 -113 41 0 9 26 49 59 89
59 74 127 182 119 191 -3 2 -110 11 -239 19 -529 34 -840 100 -1018 215 -95
61 -211 235 -211 315 0 32 4 38 38 52 47 19 116 11 364 -47 96 -22 183 -40
194 -41 10 0 -17 -12 -62 -27 -97 -33 -132 -54 -140 -88 -10 -40 11 -71 75
-113 115 -74 289 -115 491 -116 143 0 211 10 289 42 l33 14 -43 28 c-63 41
-118 95 -285 281 -329 366 -494 506 -790 675 -325 185 -633 333 -1289 620
-192 84 -414 182 -491 217 -216 99 -450 263 -428 300 10 16 94 1 213 -38 128
-42 426 -188 498 -243 71 -54 116 -76 218 -106 111 -32 225 -34 272 -5 44 26
63 58 70 118 22 186 -193 512 -422 641 -39 22 -68 30 -130 34 -175 13 -287 76
-520 295 -105 99 -172 151 -243 190 l-51 28 107 1 c383 5 555 179 433 438 -47
101 -111 185 -261 341 -74 77 -172 180 -217 227 -135 144 -136 120 -9 -161
121 -267 143 -331 138 -409 -2 -27 -37 -38 -74 -24 -39 15 -79 92 -133 255
-56 169 -86 225 -163 298 -77 74 -197 132 -334 162 -27 6 -28 6 -28 -41 0 -96
-29 -228 -58 -263 -38 -47 -85 10 -127 153 -9 31 -19 57 -22 57 -3 0 -44 -12
-91 -26 -160 -49 -239 -23 -309 102 -61 109 -75 169 -67 281 5 76 3 113 -10
162 -37 144 -108 235 -335 426 -175 147 -250 224 -285 293 -14 28 -26 54 -26
57 0 3 24 -9 53 -26 142 -84 280 -130 387 -132 77 -1 106 9 148 46 72 66 35
221 -90 365 -31 37 -87 111 -123 165 -77 113 -129 157 -186 157 -32 0 -44 -7
-81 -47 -90 -99 -205 -206 -262 -244 -77 -52 -120 -51 -151 1 -18 31 -20 51
-19 180 1 85 10 211 23 305 24 186 26 225 8 225 -7 0 -23 -18 -37 -40 -17 -28
-32 -40 -48 -40 -40 0 -90 -27 -106 -59 -22 -41 -20 -150 4 -336 23 -178 25
-235 8 -235 -7 1 -42 7 -78 15 -36 8 -97 14 -137 15 -59 0 -74 -3 -82 -18 -23
-44 60 -143 309 -365 159 -142 372 -349 403 -392 l21 -30 -37 32 c-51 45 -109
73 -149 73 -45 0 -86 -27 -144 -95 -92 -107 -152 -113 -256 -23 -22 19 -37 55
-78 193 -28 94 -61 198 -74 233 -87 226 -239 367 -449 419 l-68 16 58 28 c122
58 157 132 110 226 -32 63 -145 169 -269 253 -51 35 -114 79 -141 98 l-47 34
62 67 c35 36 100 111 144 166 194 239 257 255 404 107 64 -65 190 -234 190
-256 0 -3 -20 -6 -45 -6 -94 0 -157 -50 -176 -138 -28 -135 79 -382 203 -473
49 -35 87 -37 115 -6 19 20 21 41 29 242 15 365 5 470 -52 591 -34 72 -128
172 -209 223 -70 44 -203 103 -276 121 -44 11 -48 10 -74 -14 -52 -48 -113
-47 -183 5 -114 84 -206 324 -159 416 25 47 67 60 139 42 l58 -16 0 62 c0 167
82 274 237 309 38 8 130 20 206 26 76 6 155 17 176 26 35 14 61 46 61 76 0 5
23 31 50 57 48 45 50 49 50 102 -1 69 -25 129 -130 313 -148 263 -164 361 -72
458 54 57 78 63 152 38 187 -63 508 14 718 173 153 116 149 221 -10 268 l-63
19 90 -6 c50 -3 128 -10 174 -15 111 -13 261 -13 311 1 78 21 139 102 156 209
4 22 11 41 17 41 6 0 121 -27 256 -60 306 -76 436 -99 453 -82 9 9 10 17 2 30
-13 21 -144 109 -243 164 l-75 42 44 18 c144 61 378 127 595 167 139 26 343
51 412 51 44 0 61 6 100 34 86 61 183 102 248 105 11 0 37 -4 59 -10z m-3154
-824 c0 -28 -30 -75 -48 -75 -24 0 -62 28 -62 45 0 21 41 45 77 45 23 0 33 -5
33 -15z m-2262 -163 c3 -16 -9 -35 -37 -63 -43 -43 -45 -43 -119 -13 -87 35
-18 106 98 101 49 -2 55 -5 58 -25z m1497 -392 c203 -11 271 -27 326 -80 47
-44 51 -85 16 -141 -72 -119 -291 -192 -419 -142 -105 40 -153 97 -115 135 12
12 33 12 143 1 183 -19 220 -6 117 40 -32 14 -128 53 -213 86 -152 59 -200 84
-200 101 0 14 39 18 110 14 36 -3 142 -9 235 -14z m-638 -256 c42 -31 41 -65
-3 -114 -21 -23 -57 -55 -80 -71 l-43 -29 -38 22 c-145 83 -174 155 -81 199
61 28 203 24 245 -7z m973 -250 c10 -30 10 -39 -3 -51 -36 -36 -64 26 -36 78
13 25 25 17 39 -27z m-659 17 c23 -19 24 -19 6 -56 -17 -37 -19 -37 -60 -31
-56 9 -111 37 -115 59 -8 41 126 63 169 28z m-1344 -82 c7 -13 13 -37 13 -52
0 -25 -3 -28 -27 -25 -35 4 -52 45 -35 83 14 31 32 29 49 -6z m1097 -51 c21
-30 21 -94 0 -102 -25 -9 -83 -7 -105 4 -36 20 -16 80 36 108 31 17 52 14 69
-10z m-1263 -126 c7 -35 -10 -58 -36 -48 -17 6 -20 39 -4 67 14 28 32 19 40
-19z m1060 -306 c85 -18 161 -51 189 -81 22 -23 22 -25 6 -49 -9 -14 -30 -33
-47 -41 -25 -13 -36 -14 -67 -4 -53 17 -191 87 -229 116 -33 24 -43 57 -20 66
24 10 103 6 168 -7z m-654 -298 c11 -13 30 -42 42 -65 24 -49 65 -192 57 -200
-11 -12 -86 18 -127 50 -23 17 -51 49 -61 69 -25 48 -26 123 -2 149 23 26 66
24 91 -3z m708 -22 c39 -30 78 -100 89 -158 l7 -38 -33 6 c-179 31 -271 75
-276 133 -2 18 3 39 10 48 41 50 143 54 203 9z m-98 -287 c34 -17 54 -36 67
-62 10 -21 16 -40 14 -43 -13 -12 -203 71 -227 100 -37 44 63 47 146 5z m403
-269 c13 -9 12 -12 -5 -25 -24 -19 -39 -15 -43 13 -4 24 21 30 48 12z m-822
-76 c82 -99 243 -432 321 -661 59 -173 87 -332 61 -348 -15 -9 -61 20 -106 67
-60 62 -99 147 -154 340 -27 93 -65 209 -84 258 -41 101 -96 299 -96 348 0 43
21 42 58 -4z m-175 -193 c105 -112 290 -437 341 -600 19 -60 42 -102 96 -177
104 -144 177 -299 270 -582 86 -263 159 -428 259 -586 34 -54 60 -100 58 -102
-7 -7 -135 105 -205 181 -165 177 -255 347 -517 980 -47 116 -118 271 -157
345 -121 229 -145 281 -182 387 -19 57 -38 125 -42 153 -6 45 -5 50 13 50 11
0 41 -22 66 -49z m1407 -554 c0 -16 -62 -47 -95 -47 -33 0 -75 20 -75 36 0 17
21 21 103 23 49 1 67 -2 67 -12z m202 -397 c69 -20 59 -46 -35 -91 -58 -27
-60 -27 -110 -12 -129 38 -142 80 -32 101 69 13 133 14 177 2z m928 -76 c6
-14 10 -43 10 -65 0 -33 -3 -39 -20 -39 -12 0 -34 7 -49 15 -48 24 -55 72 -16
111 21 21 28 23 45 14 12 -6 25 -22 30 -36z m-290 -13 c0 -20 -26 -36 -35 -21
-8 13 6 40 21 40 8 0 14 -9 14 -19z m871 -1 c22 -12 25 -38 5 -46 -17 -6 -86
21 -86 35 0 20 50 27 81 11z m-110 -482 c51 -34 85 -113 114 -263 86 -439 119
-523 232 -587 60 -34 83 -60 182 -213 109 -168 124 -245 46 -245 -59 0 -188
55 -463 197 -347 179 -482 245 -562 273 -36 13 -87 33 -115 46 -27 12 -78 34
-112 49 -34 15 -70 36 -80 47 -17 20 -17 21 4 35 21 14 21 15 -34 91 -132 184
-156 303 -68 332 62 20 171 -11 380 -107 77 -36 179 -78 226 -94 166 -56 259
-34 259 61 0 58 -42 178 -101 287 l-49 91 28 10 c44 17 77 13 113 -10z m-2472
-153 c129 -148 339 -531 421 -768 90 -261 199 -432 534 -832 242 -290 336
-436 367 -569 11 -48 16 -53 82 -96 88 -57 211 -176 267 -259 67 -100 124
-232 180 -416 97 -318 173 -435 333 -516 70 -35 88 -40 125 -35 80 11 126 -31
217 -196 157 -284 221 -365 333 -420 55 -28 77 -33 137 -33 38 0 86 3 105 8
l35 7 -36 -24 c-20 -14 -42 -38 -48 -55 -25 -59 -3 -92 174 -266 89 -88 174
-179 189 -201 25 -39 30 -42 87 -47 139 -15 345 -133 498 -286 137 -136 176
-237 106 -270 -38 -18 -113 -6 -275 43 -234 72 -317 131 -605 430 -139 145
-234 235 -282 267 -198 134 -444 359 -627 573 -249 291 -457 603 -730 1090
-86 154 -202 333 -440 680 -677 987 -830 1254 -1119 1956 -98 237 -109 326
-28 235z m1664 -727 c8 -12 7 -24 -1 -42 -14 -31 -52 -35 -108 -11 -42 17 -40
33 7 58 40 21 88 19 102 -5z m-34 -528 c21 -10 52 -31 69 -45 33 -27 86 -106
97 -144 7 -24 7 -24 -51 9 -105 59 -214 150 -214 179 0 27 48 28 99 1z m2342
-20 c22 -12 48 -35 59 -52 18 -30 35 -96 27 -104 -13 -13 -203 61 -239 94 -68
59 58 110 153 62z m-991 -109 c47 -11 139 -36 205 -55 66 -20 185 -54 265 -77
80 -23 149 -45 154 -50 18 -16 -51 -66 -134 -98 -151 -58 -198 -91 -186 -128
11 -35 70 -81 166 -132 l95 -50 -130 5 c-130 6 -185 -2 -185 -27 0 -21 81 -85
219 -173 l139 -87 -22 -40 -21 -39 20 -37 c11 -20 67 -77 123 -127 57 -49 115
-107 130 -128 32 -49 34 -112 5 -158 l-21 -33 62 -50 c87 -71 186 -169 186
-184 0 -52 -303 89 -570 264 -66 44 -219 127 -356 193 -313 152 -428 228 -448
295 -15 52 7 47 175 -34 178 -87 219 -102 219 -79 0 25 -109 120 -388 338 -72
57 -131 105 -129 106 1 2 20 -1 42 -6 54 -13 132 -12 140 1 12 18 -37 76 -144
171 -109 98 -146 141 -136 158 9 14 70 12 144 -5 83 -20 91 -13 63 60 -12 31
-22 68 -22 82 0 24 2 25 48 21 27 -3 93 -25 149 -50 l99 -44 -68 65 c-116 109
-123 151 -24 151 28 0 89 -9 136 -19z m-862 -241 c60 -30 96 -57 147 -111 36
-39 64 -73 61 -76 -10 -10 -276 129 -317 166 -80 71 -16 83 109 21z m-512
-256 c76 -51 150 -135 174 -199 10 -25 7 -25 -42 15 -66 51 -186 168 -199 192
-15 27 20 23 67 -8z m3124 -814 c43 -43 17 -75 -47 -58 -26 7 -33 14 -33 33 0
43 47 58 80 25z m337 -195 c11 -8 30 -30 42 -50 l20 -35 -39 0 c-30 0 -43 6
-59 26 -24 30 -26 45 -9 62 15 15 19 15 45 -3z m-1578 -224 c40 -11 80 -26 89
-34 13 -14 10 -17 -24 -26 -22 -6 -53 -11 -70 -11 -51 0 -244 73 -244 93 0 15
163 1 249 -22z m893 -57 c153 -55 368 -168 368 -194 0 -24 -105 -4 -324 61
-67 20 -87 31 -137 79 -33 30 -59 61 -59 68 0 21 74 14 152 -14z m-1029 -72
c9 -8 17 -21 17 -29 0 -19 -74 -17 -91 3 -11 14 -10 19 10 35 23 19 32 18 64
-9z m541 -22 c66 -22 102 -48 87 -63 -4 -4 -26 -12 -47 -17 -33 -8 -47 -4
-114 29 -95 48 -120 63 -120 75 0 15 130 -1 194 -24z m-155 -172 c141 -26 312
-79 452 -139 64 -27 151 -58 194 -70 288 -75 351 -176 149 -239 -124 -38 -331
-51 -479 -30 -115 17 -185 38 -280 84 -49 24 -121 49 -158 57 -64 12 -73 17
-149 88 -129 120 -165 195 -116 240 12 12 38 23 57 27 20 3 43 7 51 9 29 7
176 -7 279 -27z m541 -28 c0 -15 -5 -12 -26 11 -19 22 -19 22 4 10 12 -6 22
-16 22 -21z m504 -71 c98 -32 294 -132 381 -193 44 -31 88 -56 98 -56 33 0
179 -41 221 -62 54 -27 76 -47 76 -69 0 -29 -32 -39 -122 -39 -106 0 -225 26
-358 78 -90 35 -112 49 -155 94 -28 29 -91 81 -140 115 -110 76 -160 125 -151
149 8 20 54 15 150 -17z m691 -7 c97 -26 137 -45 181 -84 35 -31 52 -37 176
-61 151 -29 270 -65 276 -84 5 -16 -60 -33 -126 -33 -216 0 -500 70 -615 152
-17 13 -68 33 -112 46 -120 35 -155 65 -94 84 40 12 239 -1 314 -20z m2759
-334 c8 -13 18 -41 22 -64 l6 -41 -42 -6 c-23 -3 -55 -1 -71 5 -39 14 -40 60
-2 100 32 34 67 36 87 6z m-2863 -217 c83 -24 233 -83 292 -116 97 -54 85 -79
-33 -71 -101 7 -213 44 -286 93 -69 48 -114 88 -114 103 0 16 69 12 141 -9z
m-1388 -27 c44 -15 115 -69 105 -79 -11 -11 -210 65 -222 84 -11 17 63 14 117
-5z m854 -36 c41 -47 40 -51 -13 -44 -64 10 -100 32 -83 52 18 22 72 17 96 -8z
m3791 -123 c46 -50 42 -59 -24 -51 -69 8 -114 30 -114 56 0 52 88 49 138 -5z
m242 -185 c19 -35 -2 -51 -35 -26 -16 12 -17 16 -6 30 18 21 28 20 41 -4z
m-3534 -71 c193 -60 502 -232 480 -267 -30 -49 -454 84 -544 171 -42 40 -75
94 -67 107 10 16 57 12 131 -11z m568 -20 c18 -14 26 -30 26 -51 l0 -30 -47 7
c-56 8 -133 39 -133 54 0 19 45 41 86 41 27 0 51 -7 68 -21z m-856 -105 c27
-18 28 -45 2 -69 -24 -22 -68 -16 -145 19 -60 27 -71 52 -27 62 15 3 32 7 37
9 20 8 110 -7 133 -21z m1117 -232 c-7 -7 -45 29 -45 41 0 6 11 0 25 -13 14
-13 23 -26 20 -28z m8133 -164 c3 -68 3 -68 -24 -68 -34 0 -64 26 -64 54 0 37
38 88 63 84 20 -3 22 -9 25 -70z m-9328 -82 c0 -14 -42 -55 -83 -81 -22 -14
-40 -16 -86 -12 -109 12 -121 34 -37 73 83 38 206 50 206 20z m864 -5 c51 -12
63 -25 45 -47 -31 -38 -67 -43 -143 -22 -100 27 -144 59 -98 71 31 8 156 7
196 -2z m469 -116 c43 -20 63 -62 49 -102 -11 -33 -32 -34 -132 -4 -80 25
-135 60 -135 86 0 44 141 57 218 20z m1175 -101 c44 -12 23 -46 -53 -87 -79
-42 -119 -44 -201 -8 -74 33 -52 64 61 87 67 13 158 17 193 8z m-2217 -45 c13
-25 -3 -41 -35 -37 -26 4 -31 22 -11 42 22 21 32 20 46 -5z m8243 -15 c26 -10
18 -41 -20 -84 l-36 -39 -46 17 c-38 14 -48 23 -50 43 -3 22 4 30 40 48 43 21
82 26 112 15z m-8728 -98 c18 -14 18 -16 3 -31 -12 -12 -25 -15 -45 -11 -38 9
-68 32 -59 45 9 16 78 13 101 -3z m5977 -73 c4 -3 -3 -17 -15 -30 -35 -37
-110 -26 -78 12 16 19 80 32 93 18z m-3473 -64 c151 -17 142 -28 -21 -29 -147
0 -303 20 -324 42 -11 12 184 4 345 -13z m-2124 -16 c25 -33 17 -60 -21 -73
-19 -6 -39 -9 -45 -5 -26 16 4 95 37 95 9 0 22 -8 29 -17z m-134 -123 c78 -25
153 -58 206 -90 328 -198 756 -397 1387 -645 712 -280 928 -366 1062 -424 134
-58 152 -63 310 -86 92 -13 299 -45 458 -69 567 -87 784 -108 1115 -108 234 0
318 6 522 38 l107 17 58 -25 c224 -100 456 -119 973 -83 274 19 483 16 620
-10 94 -18 270 -73 270 -85 0 -4 -17 -10 -37 -13 -568 -85 -648 -91 -1188 -91
-336 0 -504 4 -665 17 -430 35 -837 83 -1380 163 -168 25 -507 74 -755 110
-483 70 -650 101 -894 165 -220 57 -646 201 -915 309 -269 108 -861 362 -967
415 -105 53 -459 258 -555 321 -94 63 -148 114 -120 114 46 0 332 -136 467
-223 155 -99 672 -329 923 -411 141 -46 149 -30 21 48 -39 24 -83 47 -96 51
-165 50 -781 369 -1016 526 -194 129 -165 152 89 69z m700 -11 c52 -14 59 -46
24 -99 -14 -22 -31 -40 -36 -40 -26 0 -112 53 -122 76 -17 37 8 57 92 73 3 0
22 -4 42 -10z m4306 -195 c44 -31 56 -70 60 -212 l4 -134 -43 -45 c-60 -61
-131 -112 -167 -119 -35 -7 -56 16 -73 81 -14 54 -36 85 -59 85 -10 0 -47 -22
-82 -48 -78 -60 -100 -72 -132 -72 -52 0 -58 68 -15 157 16 33 48 66 121 124
223 178 325 226 386 183z m-428 -53 c0 -5 -30 -37 -66 -70 -48 -44 -82 -66
-120 -78 -61 -19 -76 -13 -48 18 34 39 195 137 227 139 4 0 7 -4 7 -9z m-440
-108 c0 -35 -30 -83 -52 -83 -14 0 -9 40 12 80 25 50 40 51 40 3z m4530 2 c74
-8 262 -33 416 -55 155 -22 338 -45 408 -52 69 -6 126 -15 126 -19 0 -18 -48
-63 -92 -85 -124 -63 -336 -70 -789 -28 -240 22 -316 25 -493 21 -203 -5 -392
5 -410 23 -17 17 6 66 54 112 55 53 133 82 257 98 89 12 353 4 523 -15z
m-3115 -9 c17 -12 17 -17 5 -45 -7 -17 -37 -54 -68 -82 -62 -57 -244 -189
-260 -189 -13 0 -59 54 -67 80 -18 57 46 135 155 190 105 53 200 72 235 46z
m5403 -18 c7 -7 12 -31 12 -55 0 -37 -4 -45 -26 -53 -57 -22 -83 -6 -70 46 7
26 48 74 64 74 4 0 13 -5 20 -12z m-908 -98 c0 -15 -5 -41 -11 -59 -9 -25 -16
-31 -41 -31 -69 0 -86 37 -41 90 47 57 93 57 93 0z m2188 14 c102 -31 -201
-89 -601 -114 -188 -13 -232 -8 -323 31 -103 44 -47 62 266 85 176 13 614 12
658 -2z m-10627 -90 c16 -14 19 -26 15 -48 -10 -46 -19 -50 -85 -36 -69 14
-121 43 -121 65 0 43 148 58 191 19z m4340 -24 c5 0 9 -11 9 -25 0 -44 -123
-149 -210 -180 l-40 -14 0 30 c0 45 27 95 73 135 41 35 120 66 145 58 8 -2 18
-4 23 -4z m-2357 -56 c3 -9 6 -30 6 -47 0 -25 -7 -37 -34 -54 -19 -12 -46 -25
-60 -29 -22 -5 -26 -3 -26 15 0 31 36 97 62 115 29 20 44 20 52 0z m1935 3
c14 -18 -16 -75 -84 -157 -49 -59 -51 -60 -100 -60 -54 0 -95 20 -95 47 0 39
143 147 230 174 36 11 36 10 49 -4z m-1661 -79 c21 -21 14 -47 -14 -54 -37 -9
-51 9 -30 40 18 29 27 31 44 14z m2542 -27 c-21 -41 -125 -122 -174 -136 -147
-44 -108 14 75 114 83 46 116 53 99 22z m-4293 -12 c59 -11 251 -54 425 -94
366 -85 513 -115 570 -115 71 0 344 -121 356 -157 12 -39 -108 -39 -348 -3
-373 57 -657 138 -925 264 -178 83 -217 105 -210 117 8 12 8 12 132 -12z
m3971 -30 c4 -20 -55 -94 -113 -143 l-47 -39 -26 20 c-15 11 -29 30 -30 43 -4
28 38 74 93 102 76 39 117 45 123 17z m602 -8 c0 -11 -29 -46 -67 -80 -65 -60
-223 -171 -243 -171 -16 0 -33 46 -26 73 9 37 44 76 104 115 115 73 232 105
232 63z m-1306 -207 c9 -24 -2 -34 -38 -34 -42 0 -50 9 -29 32 20 22 59 24 67
2z m2080 -504 c14 -5 26 -15 26 -21 0 -20 -73 -79 -97 -79 -35 0 -103 30 -103
46 0 21 43 45 97 54 26 4 49 8 50 9 1 0 13 -3 27 -9z"/>
<path d="M4570 15363 c13 -18 25 -33 27 -33 8 0 -17 38 -33 51 -11 9 -9 2 6
-18z"/>
<path d="M5628 14885 c-54 -30 -91 -155 -86 -287 l3 -72 74 -23 c199 -62 311
-34 311 78 0 27 -9 73 -21 104 -36 98 -164 215 -234 214 -11 0 -32 -6 -47 -14z"/>
<path d="M6297 14795 c-83 -31 -165 -112 -216 -213 -24 -46 -21 -69 8 -97 19
-16 20 -15 36 8 9 14 19 51 22 81 5 47 9 57 27 61 12 3 42 9 68 15 122 26 208
74 208 116 0 43 -76 57 -153 29z"/>
<path d="M4215 14455 c-173 -28 -320 -76 -404 -130 -60 -39 -96 -73 -88 -81 5
-5 34 -9 65 -8 46 0 83 11 187 54 124 52 134 54 220 55 83 0 95 -3 145 -31
l55 -31 105 23 c172 39 260 76 260 109 0 9 -17 23 -37 32 -53 23 -381 28 -508
8z"/>
<path d="M3623 14197 c-37 -34 -37 -35 -20 -61 22 -33 30 -33 56 0 22 28 28
78 11 89 -5 3 -26 -10 -47 -28z"/>
<path d="M3163 14065 c-35 -15 -70 -72 -60 -97 3 -8 35 -41 71 -73 l66 -58
106 6 c117 6 157 22 161 68 5 46 -84 118 -185 149 -75 23 -115 25 -159 5z"/>
<path d="M2815 14019 c-71 -38 -78 -44 -61 -59 43 -35 138 0 144 53 3 22 -1
27 -20 27 -13 0 -41 -10 -63 -21z"/>
<path d="M2832 13823 c-37 -18 -69 -56 -100 -118 -41 -83 -42 -82 41 -87 84
-5 149 -32 270 -109 105 -68 174 -99 219 -99 32 0 39 4 44 26 16 62 -53 182
-163 284 -113 106 -228 144 -311 103z"/>
<path d="M6500 13646 c-13 -17 -7 -46 9 -46 14 0 25 40 14 51 -6 6 -15 4 -23
-5z"/>
<path d="M6370 12951 c-60 -63 -133 -261 -166 -456 -24 -134 -16 -334 14 -397
29 -58 84 -108 119 -108 33 0 82 31 111 69 64 87 136 271 175 452 41 185 44
287 8 265 -23 -15 -61 -107 -81 -198 -63 -291 -147 -411 -143 -205 1 91 22
201 60 322 28 89 28 171 -2 241 -27 66 -44 68 -95 15z"/>
<path d="M3765 12421 c-9 -15 13 -51 31 -51 11 0 14 8 12 27 -3 28 -30 43 -43
24z"/>
<path d="M3943 12210 c3 -8 22 -55 42 -104 70 -167 93 -298 65 -370 -8 -22 -4
-29 38 -64 138 -115 408 -260 435 -233 15 15 -37 84 -110 149 -64 57 -74 72
-48 72 27 0 93 31 100 47 9 26 -34 62 -182 151 -76 46 -145 88 -154 95 -9 7
-55 71 -103 142 -49 72 -86 123 -83 115z"/>
<path d="M4458 12110 c-14 -10 -31 -33 -38 -49 -11 -27 -9 -33 15 -65 55 -72
127 -97 145 -51 22 57 -33 185 -80 185 -9 0 -29 -9 -42 -20z"/>
<path d="M5971 11700 c0 -31 57 -162 59 -134 0 17 -38 136 -50 154 -7 11 -10
6 -9 -20z"/>
<path d="M3803 11462 c28 -31 91 -56 202 -82 94 -21 186 -58 199 -79 17 -26
387 -153 403 -138 30 31 -263 189 -497 268 -103 34 -142 42 -225 47 l-100 5
18 -21z"/>
<path d="M6060 11448 c-1 -55 104 -268 132 -268 14 0 2 32 -52 145 -54 112
-79 151 -80 123z"/>
<path d="M3618 11394 c-24 -23 -1 -82 76 -202 76 -116 120 -145 283 -186 54
-14 134 -41 176 -60 173 -79 317 -117 317 -83 0 101 -624 521 -794 535 -28 2
-54 0 -58 -4z"/>
<path d="M3300 11179 c0 -25 70 -104 221 -249 l161 -154 82 -18 c166 -36 214
-14 150 69 -57 75 -310 249 -470 325 -80 37 -144 49 -144 27z"/>
<path d="M6242 11000 c0 -19 2 -27 5 -17 2 9 2 25 0 35 -3 9 -5 1 -5 -18z"/>
<path d="M3220 10996 c0 -4 33 -55 74 -114 87 -126 106 -162 106 -197 0 -47
-26 -39 -147 43 -165 111 -213 133 -213 98 0 -23 83 -127 203 -253 62 -65 128
-138 147 -162 138 -178 323 -111 323 116 0 137 -83 252 -218 302 -31 12 -61
21 -67 21 -6 0 -43 26 -82 58 -78 65 -126 98 -126 88z"/>
<path d="M4027 10564 c-18 -19 64 -179 103 -199 65 -34 78 -7 32 66 -52 81
-120 148 -135 133z"/>
<path d="M3847 10504 c-36 -24 -37 -27 -24 -47 20 -30 62 -34 77 -7 13 24 10
72 -5 77 -6 2 -27 -9 -48 -23z"/>
<path d="M6578 10505 c-12 -20 -40 -190 -40 -245 0 -64 17 -119 33 -103 6 6
15 42 19 79 16 120 7 300 -12 269z"/>
<path d="M5491 10388 c2 -122 9 -163 29 -163 12 0 15 16 14 90 -1 92 -17 175
-34 175 -6 0 -10 -43 -9 -102z"/>
<path d="M5936 10428 c-65 -100 -95 -390 -61 -608 24 -158 67 -261 140 -330
20 -19 50 -64 66 -100 87 -189 174 -152 229 97 29 132 28 149 -16 163 -53 18
-68 61 -60 168 3 45 9 119 12 165 10 131 -19 168 -121 153 l-44 -7 -6 38 c-39
224 -94 329 -139 261z"/>
<path d="M6727 10402 c-30 -75 -64 -408 -44 -428 7 -7 54 149 72 237 18 84 17
220 -1 226 -6 2 -19 -14 -27 -35z"/>
<path d="M4395 10317 c-36 -189 179 -851 342 -1051 89 -111 132 -118 193 -33
64 90 105 87 202 -13 l66 -69 -23 67 c-48 137 -41 175 35 203 56 21 70 50 46
100 -43 91 -320 424 -480 577 -103 97 -158 134 -178 114 -16 -16 1 -69 72
-222 32 -69 77 -179 99 -246 62 -183 55 -209 -26 -91 -99 142 -240 423 -308
612 l-33 90 -7 -38z"/>
<path d="M3891 10056 c-17 -20 -30 -137 -19 -161 16 -31 50 -65 65 -65 29 0 5
215 -26 234 -5 3 -14 0 -20 -8z"/>
<path d="M4285 9859 c-14 -12 -32 -34 -40 -50 -14 -27 -14 -31 10 -69 39 -63
95 -120 116 -120 45 0 48 120 6 201 -29 53 -57 65 -92 38z"/>
<path d="M6880 9415 c-15 -44 -19 -75 -15 -93 l8 -27 13 31 c13 32 30 154 21
154 -3 0 -15 -29 -27 -65z"/>
<path d="M6826 9088 c-9 -35 -7 -68 4 -68 6 0 10 20 10 45 0 50 -4 57 -14 23z"/>
<path d="M6996 9009 c-16 -81 2 -194 25 -158 16 26 7 189 -11 189 -4 0 -10
-14 -14 -31z"/>
<path d="M5057 8211 c-16 -6 -15 -11 10 -61 20 -39 34 -55 48 -55 16 0 21 8
23 38 5 56 -35 94 -81 78z"/>
<path d="M5760 8141 c0 -6 5 -21 11 -35 13 -27 85 -83 96 -73 3 4 -11 27 -31
52 -38 46 -76 74 -76 56z"/>
<path d="M7227 7953 c-12 -12 -7 -104 8 -164 31 -118 123 -306 139 -281 3 5
10 41 15 78 18 123 -14 262 -77 335 -31 36 -68 50 -85 32z"/>
<path d="M7596 6948 c-8 -13 -20 -41 -26 -64 -11 -36 -10 -45 9 -82 20 -39 43
-53 55 -33 13 21 17 119 7 159 -13 47 -24 52 -45 20z"/>
<path d="M8133 6211 c3 -22 20 -72 38 -111 35 -77 52 -90 115 -90 31 0 34 3
34 28 0 15 -12 45 -26 67 -40 61 -126 145 -147 145 -17 0 -19 -5 -14 -39z"/>
<path d="M8469 5765 c-4 -56 3 -110 17 -140 13 -28 14 -25 9 46 -2 42 -9 87
-14 100 -10 24 -10 24 -12 -6z"/>
<path d="M8640 5519 c-22 -41 29 -198 104 -321 79 -130 246 -301 275 -283 49
30 -74 321 -180 426 -25 26 -57 63 -69 81 -30 43 -80 97 -102 109 -13 7 -20 4
-28 -12z"/>
<path d="M11470 3391 c0 -39 36 -55 60 -26 10 12 8 16 -15 25 -33 12 -45 13
-45 1z"/>
<path d="M3320 5763 c0 -10 12 -36 27 -58 26 -37 28 -38 31 -17 4 25 -26 83
-46 90 -6 2 -12 -5 -12 -15z"/>
</g>
</svg>
