<?xml version="1.0" encoding="UTF-8"?>
<!DOCTYPE svg PUBLIC "-//W3C//DTD SVG 1.1//EN" "http://www.w3.org/Graphics/SVG/1.1/DTD/svg11.dtd">
<svg xmlns="http://www.w3.org/2000/svg" version="1.1" width="860px" height="977px" style="shape-rendering:geometricPrecision; text-rendering:geometricPrecision; image-rendering:optimizeQuality; fill-rule:evenodd; clip-rule:evenodd" xmlns:xlink="http://www.w3.org/1999/xlink">
<g><path style="opacity:1" fill="#f6f6f6" d="M -0.5,-0.5 C 286.167,-0.5 572.833,-0.5 859.5,-0.5C 859.5,325.167 859.5,650.833 859.5,976.5C 572.833,976.5 286.167,976.5 -0.5,976.5C -0.5,650.833 -0.5,325.167 -0.5,-0.5 Z"/></g>
<g><path style="opacity:1" fill="#1f7e79" d="M 35.5,667.5 C 34.871,664.603 33.871,661.936 32.5,659.5C 32.3256,656.126 31.8256,652.793 31,649.5C 30.3333,532.5 30.3333,415.5 31,298.5C 31.3265,294.371 32.1598,290.371 33.5,286.5C 34.9238,284.485 35.5905,282.152 35.5,279.5C 41.3097,263.881 50.143,250.214 62,238.5C 72.3044,228.426 83.8044,219.926 96.5,213C 175.092,168.096 254.425,124.429 334.5,82C 360.076,69.378 385.742,57.0447 411.5,45C 419.18,41.5459 427.18,40.2126 435.5,41C 452.657,46.9143 469.324,53.9143 485.5,62C 586.867,113.845 686.534,168.511 784.5,226C 801.596,239.061 814.763,255.227 824,274.5C 825.26,280.28 826.927,285.947 829,291.5C 829.667,413.5 829.667,535.5 829,657.5C 824.608,672.286 817.608,685.62 808,697.5C 800.47,705.365 792.636,712.865 784.5,720C 688.368,777.068 591.035,832.068 492.5,885C 473.38,895.063 453.713,903.73 433.5,911C 431.167,911.667 428.833,911.667 426.5,911C 421.489,909.33 416.489,907.663 411.5,906C 383.221,892.527 355.221,878.527 327.5,864C 245.377,818.106 163.71,771.439 82.5,724C 61.119,709.797 45.4523,690.964 35.5,667.5 Z"/></g>
<g><path style="opacity:1" fill="#62c7ca" d="M 427.5,84.5 C 429.604,84.2011 431.604,84.5344 433.5,85.5C 464.879,99.5212 495.879,114.688 526.5,131C 601.779,171.304 676.445,212.638 750.5,255C 763.667,262.833 774.167,273.333 782,286.5C 784.533,291.227 786.199,296.227 787,301.5C 787.667,416.833 787.667,532.167 787,647.5C 781.72,662.79 772.553,675.29 759.5,685C 678.606,732.866 596.939,779.533 514.5,825C 491.104,837.03 467.771,849.03 444.5,861C 439.809,863.23 434.976,865.063 430,866.5C 423.675,864.422 417.509,861.922 411.5,859C 304.661,803.588 199.994,744.588 97.5,682C 86.4937,673.004 78.6604,661.838 74,648.5C 73.3333,531.833 73.3333,415.167 74,298.5C 78.6968,285.466 86.1968,274.3 96.5,265C 104.314,258.591 112.647,252.925 121.5,248C 190.512,209.159 259.845,170.826 329.5,133C 361.857,115.988 394.524,99.8209 427.5,84.5 Z"/></g>
<g><path style="opacity:1" fill="#ccebec" d="M 660.5,264.5 C 505.812,264.173 351.145,264.506 196.5,265.5C 197.263,264.732 198.263,264.232 199.5,264C 353.334,263.167 507.001,263.334 660.5,264.5 Z"/></g>
<g><path style="opacity:1" fill="#fdfefe" d="M 660.5,264.5 C 674.341,267.507 683.175,275.841 687,289.5C 687.667,336.833 687.667,384.167 687,431.5C 683.414,446.086 674.247,454.919 659.5,458C 506.833,458.667 354.167,458.667 201.5,458C 186.009,454.509 176.509,445.009 173,429.5C 172.333,383.833 172.333,338.167 173,292.5C 175.661,279.005 183.494,270.005 196.5,265.5C 351.145,264.506 505.812,264.173 660.5,264.5 Z"/></g>
<g><path style="opacity:1" fill="#7bb1ae" d="M 35.5,279.5 C 35.5905,282.152 34.9238,284.485 33.5,286.5C 33.4095,283.848 34.0762,281.515 35.5,279.5 Z"/></g>
<g><path style="opacity:1" fill="#1a7e79" d="M 352.5,348.5 C 353.443,365.472 353.776,382.472 353.5,399.5C 353.201,402.642 351.534,404.809 348.5,406C 343.474,407.494 339.308,406.327 336,402.5C 334.703,389.261 334.036,375.928 334,362.5C 330.65,353.547 324.483,351.047 315.5,355C 313.383,356.731 311.883,358.898 311,361.5C 310.946,375.235 310.28,388.902 309,402.5C 305.257,406.259 300.757,407.426 295.5,406C 293.622,404.457 292.122,402.624 291,400.5C 290.333,372.167 290.333,343.833 291,315.5C 297.66,308.705 303.994,309.039 310,316.5C 310.333,326.167 310.667,335.833 311,345.5C 317.82,335.932 326.987,332.765 338.5,336C 345.228,337.896 349.895,342.063 352.5,348.5 Z"/></g>
<g><path style="opacity:1" fill="#1d7f7a" d="M 554.5,310.5 C 560.386,309.343 565.219,311.01 569,315.5C 569.667,344.167 569.667,372.833 569,401.5C 564.752,406.596 559.585,407.763 553.5,405C 551.951,403.786 550.785,402.286 550,400.5C 549.333,372.5 549.333,344.5 550,316.5C 551.332,314.34 552.832,312.34 554.5,310.5 Z"/></g>
<g><path style="opacity:1" fill="#1d7f7a" d="M 394.5,324.5 C 394.5,328.5 394.5,332.5 394.5,336.5C 398.167,336.5 401.833,336.5 405.5,336.5C 411.701,339.651 413.034,344.317 409.5,350.5C 408.335,351.584 407.002,352.417 405.5,353C 401.848,353.499 398.182,353.665 394.5,353.5C 394.333,364.505 394.5,375.505 395,386.5C 395.833,387.333 396.667,388.167 397.5,389C 404.976,387.559 409.643,390.392 411.5,397.5C 410.82,400.36 409.487,402.86 407.5,405C 398.624,408.632 389.957,408.298 381.5,404C 378.193,401.222 376.026,397.722 375,393.5C 374.5,380.171 374.333,366.837 374.5,353.5C 368.527,353.527 365.527,350.527 365.5,344.5C 366.029,338.967 369.029,336.301 374.5,336.5C 374.334,332.154 374.501,327.821 375,323.5C 381.953,315.299 388.453,315.632 394.5,324.5 Z"/></g>
<g><path style="opacity:1" fill="#1e7f7a" d="M 594.5,326.5 C 598.41,326.263 602.077,327.096 605.5,329C 620.081,336.193 634.747,343.193 649.5,350C 655.142,355.432 655.976,361.599 652,368.5C 635.034,377.4 617.867,385.9 600.5,394C 594.15,394.831 590.483,391.998 589.5,385.5C 589.795,383.029 590.795,380.863 592.5,379C 605.979,373.093 619.312,366.926 632.5,360.5C 620.213,353.857 607.546,348.023 594.5,343C 587.843,337.327 587.843,331.827 594.5,326.5 Z"/></g>
<g><path style="opacity:1" fill="#1e7f7a" d="M 258.5,326.5 C 268.664,325.488 272.497,329.822 270,339.5C 255.91,346.462 241.743,353.295 227.5,360C 241.124,366.596 254.79,373.096 268.5,379.5C 273.616,387.266 271.616,391.932 262.5,393.5C 259.344,393.257 256.344,392.424 253.5,391C 240.44,384.137 227.107,377.804 213.5,372C 206.574,367.422 204.741,361.255 208,353.5C 209.5,352 211,350.5 212.5,349C 228.276,342.146 243.609,334.646 258.5,326.5 Z"/></g>
<g><path style="opacity:1" fill="#9ac3c1" d="M 470.5,335.5 C 465.797,335.437 461.13,335.771 456.5,336.5C 459.017,335.027 461.85,334.36 465,334.5C 467.033,334.506 468.866,334.839 470.5,335.5 Z"/></g>
<g><path style="opacity:1" fill="#a1c7c5" d="M 518.5,336.5 C 511.833,335.167 505.167,335.167 498.5,336.5C 498.918,335.778 499.584,335.278 500.5,335C 503,334.833 505.5,334.667 508,334.5C 511.805,334.304 515.305,334.97 518.5,336.5 Z"/></g>
<g><path style="opacity:1" fill="#bed9d7" d="M 394.5,324.5 C 395.482,327.962 395.815,331.629 395.5,335.5C 399.042,335.187 402.375,335.521 405.5,336.5C 401.833,336.5 398.167,336.5 394.5,336.5C 394.5,332.5 394.5,328.5 394.5,324.5 Z"/></g>
<g><path style="opacity:1" fill="#1e7f7a" d="M 456.5,336.5 C 461.13,335.771 465.797,335.437 470.5,335.5C 476.982,336.577 481.982,339.91 485.5,345.5C 488.686,342.479 492.02,339.646 495.5,337C 496.448,336.517 497.448,336.351 498.5,336.5C 505.167,335.167 511.833,335.167 518.5,336.5C 526.121,340.043 530.621,346.043 532,354.5C 532.667,369.5 532.667,384.5 532,399.5C 527.365,407.078 521.365,408.411 514,403.5C 513.333,402.167 512.667,400.833 512,399.5C 511.667,386.5 511.333,373.5 511,360.5C 507.345,353.93 501.845,351.763 494.5,354C 491.894,355.938 490.061,358.438 489,361.5C 488.965,375.261 488.298,388.927 487,402.5C 481.333,407.833 475.667,407.833 470,402.5C 469.392,400.846 468.892,399.179 468.5,397.5C 468.667,385.162 468.5,372.829 468,360.5C 467.722,359.584 467.222,358.918 466.5,358.5C 464.287,354.727 460.954,353.06 456.5,353.5C 452.331,353.151 449.164,354.818 447,358.5C 445.72,372.098 445.054,385.765 445,399.5C 442.27,406.053 437.437,408.22 430.5,406C 428.235,404.242 426.568,402.075 425.5,399.5C 425.191,379.787 425.524,360.121 426.5,340.5C 429.537,335.745 433.871,334.245 439.5,336C 442.746,337.984 444.912,340.818 446,344.5C 448.828,340.825 452.328,338.158 456.5,336.5 Z"/></g>
<g><path style="opacity:1" fill="#d2e5e4" d="M 426.5,340.5 C 425.524,360.121 425.191,379.787 425.5,399.5C 424.338,380.338 424.171,361.004 425,341.5C 425.383,340.944 425.883,340.611 426.5,340.5 Z"/></g>
<g><path style="opacity:1" fill="#559e9a" d="M 352.5,348.5 C 353.268,349.263 353.768,350.263 354,351.5C 354.828,367.672 354.661,383.672 353.5,399.5C 353.776,382.472 353.443,365.472 352.5,348.5 Z"/></g>
<g><path style="opacity:1" fill="#bcd2d1" d="M 466.5,358.5 C 467.222,358.918 467.722,359.584 468,360.5C 468.5,372.829 468.667,385.162 468.5,397.5C 467.758,384.649 467.091,371.649 466.5,358.5 Z"/></g>
<g><path style="opacity:1" fill="#c9ebec" d="M 659.5,501.5 C 506.5,501.333 353.5,501.5 200.5,502C 197.846,502.941 195.179,503.774 192.5,504.5C 194.121,502.883 196.121,501.716 198.5,501C 352.334,500.167 506.001,500.334 659.5,501.5 Z"/></g>
<g><path style="opacity:1" fill="#fdfefe" d="M 659.5,501.5 C 673.901,504.068 683.068,512.401 687,526.5C 687.667,573.833 687.667,621.167 687,668.5C 683.5,682.667 674.667,691.5 660.5,695C 507.5,695.667 354.5,695.667 201.5,695C 186,691.5 176.5,682 173,666.5C 172.333,620.833 172.333,575.167 173,529.5C 174.857,517.483 181.357,509.15 192.5,504.5C 195.179,503.774 197.846,502.941 200.5,502C 353.5,501.5 506.5,501.333 659.5,501.5 Z"/></g>
<g><path style="opacity:1" fill="#1f7f7a" d="M 552.5,543.5 C 559.669,542.513 563.169,545.513 563,552.5C 562.535,553.931 561.701,555.097 560.5,556C 556.423,557.787 552.59,559.954 549,562.5C 547.966,570.806 546.966,579.14 546,587.5C 543.694,592.306 540.194,595.973 535.5,598.5C 540.081,600.248 543.581,603.248 546,607.5C 546.093,615.909 546.76,624.243 548,632.5C 551.605,636.721 556.105,639.554 561.5,641C 563.966,644.006 564.133,647.173 562,650.5C 560.278,652.444 558.111,653.444 555.5,653.5C 533.109,649.549 524.276,636.216 529,613.5C 526.282,608.052 521.782,605.552 515.5,606C 509.232,601.392 508.898,596.392 514.5,591C 519.939,591.302 524.439,589.469 528,585.5C 529.248,576.575 529.915,567.575 530,558.5C 535.296,550.108 542.796,545.108 552.5,543.5 Z"/></g>
<g><path style="opacity:1" fill="#1d7f7a" d="M 594.5,649.5 C 589.414,651.749 584.081,652.749 578.5,652.5C 573.283,648.082 573.283,643.582 578.5,639C 583.791,637.957 587.625,635.123 590,630.5C 590.098,622.423 590.765,614.423 592,606.5C 594.425,602.866 597.592,600.032 601.5,598C 597.388,596.221 594.222,593.388 592,589.5C 591.067,580.791 590.067,572.124 589,563.5C 585.919,560.707 582.419,558.54 578.5,557C 572.449,550.744 573.449,546.244 581.5,543.5C 605.59,547.299 615.09,561.299 610,585.5C 613.602,589.469 618.102,591.635 623.5,592C 627.115,595.659 627.448,599.659 624.5,604C 619.672,605.158 615.172,606.992 611,609.5C 610.333,610.833 609.667,612.167 609,613.5C 608.871,621.894 608.204,630.228 607,638.5C 604.372,643.9 600.205,647.567 594.5,649.5 Z"/></g>
<g><path style="opacity:1" fill="#86b6b3" d="M 377.5,565.5 C 371.464,565.36 365.464,565.693 359.5,566.5C 359.918,565.778 360.584,565.278 361.5,565C 367.016,564.183 372.35,564.349 377.5,565.5 Z"/></g>
<g><path style="opacity:1" fill="#86b6b3" d="M 441.5,565.5 C 435.131,565.347 428.797,565.68 422.5,566.5C 425.865,564.961 429.531,564.294 433.5,564.5C 436.355,564.503 439.022,564.836 441.5,565.5 Z"/></g>
<g><path style="opacity:1" fill="#6fa8a6" d="M 311.5,565.5 C 305.131,565.347 298.797,565.68 292.5,566.5C 295.865,564.961 299.531,564.294 303.5,564.5C 306.355,564.503 309.022,564.836 311.5,565.5 Z"/></g>
<g><path style="opacity:1" fill="#1d7f7a" d="M 311.5,565.5 C 318.743,565.745 324.909,568.412 330,573.5C 333.087,581.443 330.587,586.443 322.5,588.5C 318.097,586.628 313.764,584.461 309.5,582C 296.087,580.88 288.754,587.046 287.5,600.5C 288.882,614.731 296.548,620.898 310.5,619C 314.816,617.253 318.983,615.42 323,613.5C 330.428,614.269 333.095,618.269 331,625.5C 326.079,631.912 319.579,635.579 311.5,636.5C 304.378,636.825 297.378,636.159 290.5,634.5C 276.138,627.611 268.805,616.111 268.5,600C 269.378,583.637 277.378,572.47 292.5,566.5C 298.797,565.68 305.131,565.347 311.5,565.5 Z"/></g>
<g><path style="opacity:1" fill="#1e7f7a" d="M 377.5,565.5 C 384.012,566.724 389.845,569.391 395,573.5C 397.166,580.489 394.666,584.489 387.5,585.5C 382.808,584.103 378.142,582.603 373.5,581C 369.683,579.977 366.183,580.477 363,582.5C 362.333,584.167 362.333,585.833 363,587.5C 372.762,591.326 382.262,595.826 391.5,601C 399.146,610.247 399.313,619.747 392,629.5C 388.479,632.844 384.312,635.011 379.5,636C 366.541,638.423 354.541,636.09 343.5,629C 340.682,625.662 339.849,621.829 341,617.5C 343.995,614.735 347.495,613.902 351.5,615C 359.593,621.376 368.426,622.876 378,619.5C 378.758,617.231 378.591,615.064 377.5,613C 369.422,610.197 361.422,607.197 353.5,604C 342.452,595.627 340.619,585.46 348,573.5C 351.238,570.077 355.071,567.743 359.5,566.5C 365.464,565.693 371.464,565.36 377.5,565.5 Z"/></g>
<g><path style="opacity:1" fill="#1d7f7a" d="M 441.5,565.5 C 447.644,566.322 453.144,568.656 458,572.5C 459.879,575.8 459.879,579.134 458,582.5C 456.278,584.444 454.111,585.444 451.5,585.5C 447.411,584.291 443.411,582.791 439.5,581C 435.833,580.333 432.167,580.333 428.5,581C 426.203,582.263 425.37,584.097 426,586.5C 427.731,588.617 429.898,590.117 432.5,591C 440.061,592.848 447.061,595.848 453.5,600C 461.504,608.151 462.671,617.318 457,627.5C 453.456,632.522 448.623,635.356 442.5,636C 427.944,639.365 415.444,635.865 405,625.5C 403.245,619.437 405.412,615.77 411.5,614.5C 417.146,616.654 422.813,618.821 428.5,621C 433.196,621.914 437.696,621.414 442,619.5C 442.758,617.231 442.591,615.064 441.5,613C 433.882,610.179 426.216,607.513 418.5,605C 408.881,598.713 405.715,589.879 409,578.5C 411.803,572.527 416.303,568.527 422.5,566.5C 428.797,565.68 435.131,565.347 441.5,565.5 Z"/></g>
<g><path style="opacity:1" fill="#24817c" d="M 242.5,613.5 C 255.968,613.77 260.468,620.104 256,632.5C 246.14,639.508 239.306,637.341 235.5,626C 235.948,620.732 238.282,616.566 242.5,613.5 Z"/></g>
<g><path style="opacity:1" fill="#7badab" d="M 290.5,634.5 C 297.378,636.159 304.378,636.825 311.5,636.5C 306.684,637.65 301.684,637.816 296.5,637C 294.277,636.434 292.277,635.6 290.5,634.5 Z"/></g>
<g><path style="opacity:1" fill="#c2d9d8" d="M 594.5,649.5 C 589.654,653.259 584.32,654.259 578.5,652.5C 584.081,652.749 589.414,651.749 594.5,649.5 Z"/></g>
<g><path style="opacity:1" fill="#a8cac8" d="M 32.5,659.5 C 33.871,661.936 34.871,664.603 35.5,667.5C 33.3455,665.383 32.3455,662.716 32.5,659.5 Z"/></g>
</svg>
